<svg xmlns="http://www.w3.org/2000/svg" xmlns:xlink="http://www.w3.org/1999/xlink" width="500" zoomAndPan="magnify" viewBox="0 0 375 374.999991" height="500" preserveAspectRatio="xMidYMid meet" version="1.0"><defs><clipPath id="3fda0186e8"><path d="M 2.238281 6 L 372.738281 6 L 372.738281 374.972656 L 2.238281 374.972656 Z M 2.238281 6 " clip-rule="nonzero"/></clipPath><clipPath id="03f1033d14"><path d="M 75 247 L 300 247 L 300 374.972656 L 75 374.972656 Z M 75 247 " clip-rule="nonzero"/></clipPath></defs><path fill="#100f0d" d="M 201.570312 261.558594 C 206.589844 261.558594 210.65625 257.492188 210.65625 252.46875 L 210.65625 232.769531 C 210.65625 227.75 206.589844 223.683594 201.570312 223.683594 L 173.40625 223.683594 C 168.382812 223.683594 164.300781 227.75 164.300781 232.769531 L 164.300781 252.46875 C 164.300781 257.492188 168.382812 261.558594 173.40625 261.558594 L 201.570312 261.558594 " fill-opacity="1" fill-rule="nonzero"/><g clip-path="url(#3fda0186e8)"><path fill="#100f0d" d="M 228.574219 37.78125 L 188.195312 78.160156 C 187.285156 79.070312 186.082031 79.535156 184.882812 79.535156 C 183.679688 79.535156 182.480469 79.070312 181.566406 78.160156 L 141.175781 37.78125 C 139.351562 35.941406 139.351562 32.976562 141.175781 31.136719 C 143.011719 29.316406 145.980469 29.316406 147.816406 31.136719 L 184.882812 68.203125 L 221.945312 31.136719 C 223.785156 29.316406 226.75 29.316406 228.574219 31.136719 C 230.414062 32.976562 230.414062 35.941406 228.574219 37.78125 Z M 197.792969 119.21875 C 195.199219 119.21875 193.101562 117.121094 193.101562 114.53125 C 193.101562 111.433594 190.585938 108.914062 187.488281 108.914062 C 184.390625 108.914062 181.871094 111.433594 181.871094 114.53125 C 181.871094 117.121094 179.773438 119.21875 177.183594 119.21875 C 174.589844 119.21875 172.492188 117.121094 172.492188 114.53125 C 172.492188 106.265625 179.222656 99.535156 187.488281 99.535156 C 195.75 99.535156 202.480469 106.265625 202.480469 114.53125 C 202.480469 117.121094 200.382812 119.21875 197.792969 119.21875 Z M 197.792969 153.578125 C 195.199219 153.578125 193.101562 151.476562 193.101562 148.886719 C 193.101562 145.789062 190.585938 143.273438 187.488281 143.273438 C 184.390625 143.273438 181.871094 145.789062 181.871094 148.886719 C 181.871094 151.476562 179.773438 153.578125 177.183594 153.578125 C 174.589844 153.578125 172.492188 151.476562 172.492188 148.886719 C 172.492188 140.625 179.222656 133.894531 187.488281 133.894531 C 195.75 133.894531 202.480469 140.625 202.480469 148.886719 C 202.480469 151.476562 200.382812 153.578125 197.792969 153.578125 Z M 197.792969 187.933594 C 195.199219 187.933594 193.101562 185.835938 193.101562 183.246094 C 193.101562 180.164062 190.585938 177.644531 187.488281 177.644531 C 184.390625 177.644531 181.871094 180.164062 181.871094 183.246094 C 181.871094 185.835938 179.773438 187.933594 177.183594 187.933594 C 174.589844 187.933594 172.492188 185.835938 172.492188 183.246094 C 172.492188 174.980469 179.222656 168.253906 187.488281 168.253906 C 195.75 168.253906 202.480469 174.980469 202.480469 183.246094 C 202.480469 185.835938 200.382812 187.933594 197.792969 187.933594 Z M 325.773438 72.441406 C 328.492188 71.75 331.488281 71.242188 334.773438 71.023438 C 338.929688 70.75 342.027344 66.871094 341.230469 62.789062 C 339.101562 51.71875 321.183594 43.527344 298.636719 33.773438 L 237.691406 7.679688 C 232.335938 5.375 226.113281 6.578125 221.988281 10.703125 L 186.257812 46.4375 L 152.984375 11.121094 C 148.886719 6.765625 142.492188 5.433594 136.992188 7.792969 L 76.335938 33.773438 C 44.351562 47.476562 35.800781 51.746094 33.742188 62.71875 C 32.976562 66.84375 36.015625 70.75 40.199219 71.023438 C 43.484375 71.242188 46.480469 71.75 49.199219 72.441406 L 2.238281 374.039062 L 46.105469 374.039062 L 82.648438 164.027344 L 99.796875 220.527344 C 101.519531 226.199219 102.519531 232.046875 102.792969 237.921875 L 154.921875 237.921875 L 154.921875 232.769531 C 154.921875 222.582031 163.214844 214.289062 173.40625 214.289062 L 201.570312 214.289062 C 211.757812 214.289062 220.050781 222.582031 220.050781 232.769531 L 220.050781 237.921875 L 270.574219 237.921875 C 270.921875 231.613281 272.078125 225.332031 274.078125 219.269531 L 292.328125 164.027344 L 328.871094 374.039062 L 372.738281 374.039062 L 325.773438 72.441406 " fill-opacity="1" fill-rule="nonzero"/></g><g clip-path="url(#03f1033d14)"><path fill="#100f0d" d="M 270.703125 247.316406 L 220.050781 247.316406 L 220.050781 252.46875 C 220.050781 262.65625 211.757812 270.949219 201.570312 270.949219 L 173.40625 270.949219 C 163.214844 270.949219 154.921875 262.65625 154.921875 252.46875 L 154.921875 247.316406 L 102.632812 247.316406 C 102.359375 250.484375 101.894531 253.640625 101.214844 256.765625 L 75.339844 374.039062 L 299.636719 374.039062 L 272.367188 258.15625 C 271.53125 254.566406 270.996094 250.949219 270.703125 247.316406 " fill-opacity="1" fill-rule="nonzero"/></g></svg>